<?xml version="1.0" standalone="no"?><!DOCTYPE svg PUBLIC "-//W3C//DTD SVG 1.1//EN" "http://www.w3.org/Graphics/SVG/1.1/DTD/svg11.dtd"><svg t="1686078040782" class="icon" viewBox="0 0 1024 1024" version="1.1" xmlns="http://www.w3.org/2000/svg" p-id="13903" data-spm-anchor-id="a313x.7781069.0.i4" xmlns:xlink="http://www.w3.org/1999/xlink" width="200" height="200"><path d="M512 944C273.6 944 80 750.4 80 512S273.6 80 512 80s432 193.6 432 432-193.6 432-432 432z m0-800C308.8 144 144 308.8 144 512s164.8 368 368 368 368-164.8 368-368S715.2 144 512 144z" fill="#666666" p-id="13904"></path><path d="M584 516.8l-158.4-158.4c-12.8-12.8-12.8-32 0-44.8 12.8-12.8 32-12.8 44.8 0l180.8 180.8c6.4 6.4 9.6 14.4 9.6 22.4s-3.2 16-9.6 22.4L470.4 720c-12.8 12.8-32 12.8-44.8 0-12.8-12.8-12.8-32 0-44.8l158.4-158.4z" fill="#666666" p-id="13905"></path></svg>